<svg xmlns="http://www.w3.org/2000/svg" width="50" height="50" viewBox="0 0 50 50" fill="none">
<path fill-rule="evenodd" clip-rule="evenodd" d="M45.5403 37.6101L35.8502 26.1601L47.3002 16.47C50.4633 13.7932 50.8559 9.06164 48.1802 5.90001C45.5045 2.73838 40.7732 2.34316 37.6101 5.02004L26.1601 14.7101L16.4701 3.2601C13.7944 0.0984707 9.0631 -0.296746 5.90004 2.38013C2.73698 5.05702 2.3444 9.78854 5.02007 12.9502L14.7101 24.4002L3.26014 34.0902C0.097072 36.7671 -0.295503 41.4986 2.38017 44.6603C5.05584 47.8219 9.78714 48.2171 12.9502 45.5402L24.4002 35.8502L34.0903 47.3002C36.7659 50.4618 41.4972 50.857 44.6603 48.1802C47.8234 45.5033 48.2159 40.7717 45.5403 37.6101Z" fill="#FFF3A9"/>
</svg>