<svg xmlns="http://www.w3.org/2000/svg" width="106" height="104" viewBox="0 0 106 104" fill="none">
<path d="M48.4253 4.84975C49.807 2.21581 50.4978 0.898774 51.4206 0.46882C52.2241 0.0942965 53.151 0.0942965 53.9551 0.46882C54.8779 0.898774 55.5687 2.21581 56.9504 4.84975L65.425 21.0037C66.0219 22.141 66.32 22.7096 66.7645 23.0882C67.1566 23.4225 67.6276 23.6503 68.1318 23.7499C68.7033 23.8627 69.3322 23.7426 70.5892 23.5021L88.4436 20.0873C91.3545 19.5305 92.8103 19.2521 93.7204 19.7088C94.5131 20.1066 95.0907 20.8347 95.3003 21.6995C95.5412 22.6924 94.9473 24.0562 93.759 26.7839L86.4722 43.5128C85.959 44.6904 85.703 45.2792 85.685 45.8644C85.6693 46.3805 85.7855 46.8925 86.0229 47.3512C86.2915 47.8704 86.7769 48.2892 87.7479 49.1267L101.537 61.0226C103.786 62.9621 104.91 63.9321 105.122 64.9312C105.307 65.802 105.1 66.7097 104.558 67.4135C103.935 68.222 102.503 68.6056 99.64 69.373L82.0789 74.0792C80.8424 74.4108 80.2244 74.5766 79.7582 74.9276C79.3468 75.2368 79.021 75.6477 78.812 76.1197C78.5753 76.6546 78.5518 77.2967 78.5054 78.5814L77.8459 96.8301C77.7386 99.8056 77.685 101.293 77.0394 102.083C76.4768 102.771 75.642 103.175 74.756 103.188C73.7387 103.202 72.5479 102.317 70.1652 100.546L55.5536 89.6864C54.5249 88.9221 54.0105 88.5397 53.4468 88.392C52.9492 88.2619 52.4264 88.2619 51.9289 88.392C51.3652 88.5397 50.8508 88.9221 49.822 89.6864L35.2105 100.546C32.828 102.317 31.6368 103.202 30.6197 103.188C29.7339 103.175 28.8987 102.771 28.3364 102.083C27.6907 101.293 27.637 99.8056 27.5295 96.8301L26.8701 78.5814C26.8237 77.2967 26.8005 76.6546 26.5638 76.1197C26.3548 75.6477 26.0291 75.2368 25.6174 74.9276C25.1511 74.5766 24.533 74.4108 23.2967 74.0792L5.73556 69.373C2.87217 68.6056 1.44047 68.222 0.817917 67.4135C0.275655 66.7097 0.0694225 65.802 0.253971 64.9312C0.465865 63.9321 1.59008 62.9621 3.83852 61.0226L17.6281 49.1267C18.5988 48.2892 19.0841 47.8704 19.3528 47.3512C19.5898 46.8925 19.7062 46.3805 19.6905 45.8644C19.6728 45.2792 19.4164 44.6904 18.9034 43.5128L11.6167 26.7839C10.4285 24.0562 9.83448 22.6924 10.0752 21.6995C10.2848 20.8347 10.8628 20.1066 11.6553 19.7088C12.5652 19.2521 14.0209 19.5305 16.9321 20.0873L34.7867 23.5021C36.0436 23.7426 36.672 23.8627 37.2436 23.7499C37.7483 23.6503 38.2191 23.4225 38.6113 23.0882C39.0555 22.7096 39.3538 22.141 39.9504 21.0037L48.4253 4.84975Z" fill="#704EEA"/>
</svg>