<svg width="30" height="30" viewBox="0 0 30 30" fill="none" xmlns="http://www.w3.org/2000/svg">
<path d="M7.61242 26.325C7.2809 26.325 6.96295 26.1933 6.72853 25.9589C6.49411 25.7245 6.36242 25.4065 6.36242 25.075L6.17492 6.75C6.15986 6.37793 6.21852 6.00656 6.34751 5.65724C6.4765 5.30792 6.67328 4.98755 6.92652 4.71455C7.17977 4.44155 7.48449 4.22132 7.82316 4.06651C8.16183 3.9117 8.52777 3.82538 8.89992 3.8125L20.8874 3.75C21.2601 3.75651 21.6278 3.83637 21.9695 3.98501C22.3113 4.13365 22.6205 4.34817 22.8793 4.61631C23.1382 4.88445 23.3417 5.20096 23.4782 5.54776C23.6147 5.89456 23.6815 6.26486 23.6749 6.6375L23.8499 24.9625C23.8521 25.1815 23.7966 25.3973 23.6891 25.5882C23.5816 25.779 23.4258 25.9383 23.2374 26.05C23.0474 26.1597 22.8318 26.2175 22.6124 26.2175C22.393 26.2175 22.1774 26.1597 21.9874 26.05L14.8624 22.1L8.24992 26.1375C8.05411 26.2469 7.83626 26.3109 7.61242 26.325ZM14.8124 19.3875C15.0296 19.3879 15.2437 19.4393 15.4374 19.5375L21.3249 22.8L21.1749 6.6125C21.1749 6.3625 21.0124 6.1875 20.9124 6.2L8.91242 6.3125C8.81242 6.3125 8.67492 6.475 8.67492 6.725L8.82492 22.85L14.1749 19.5625C14.3692 19.4512 14.5885 19.391 14.8124 19.3875Z" fill="#0A0430"/>
</svg>
